<?xml version="1.0" standalone="no"?>
<!DOCTYPE svg PUBLIC "-//W3C//DTD SVG 20010904//EN"
 "http://www.w3.org/TR/2001/REC-SVG-20010904/DTD/svg10.dtd">
<svg version="1.0" xmlns="http://www.w3.org/2000/svg"
 width="1640.000000pt" height="2360.000000pt" viewBox="0 0 1640.000000 2360.000000"
 preserveAspectRatio="xMidYMid meet">

<g transform="translate(0.000000,2360.000000) scale(0.100000,-0.100000)"
fill="#000000" stroke="none">
<path d="M6384 14345 c-176 -38 -318 -170 -382 -354 -14 -40 -16 -132 -19
-693 l-4 -648 170 0 171 0 0 608 c1 640 2 654 47 704 10 11 36 29 58 39 38 18
101 19 1385 19 l1345 0 463 -463 462 -463 0 -222 0 -222 170 0 170 0 0 293 0
292 -563 563 -562 562 -1425 -1 c-1143 0 -1437 -3 -1486 -14z"/>
<path d="M7115 12355 c-348 -65 -577 -348 -615 -760 -13 -132 -1 -293 30 -409
81 -307 257 -489 546 -567 115 -31 355 -31 469 0 171 46 292 125 375 244 51
72 105 195 116 265 l6 40 -68 11 c-38 7 -119 20 -181 30 l-111 17 -13 -59 c-7
-35 -28 -83 -50 -118 -65 -100 -167 -149 -310 -149 -203 0 -345 111 -416 323
-25 76 -27 95 -27 252 -1 189 7 238 59 352 77 168 221 253 405 240 100 -7 160
-30 218 -82 44 -39 87 -114 116 -199 4 -11 12 -16 21 -12 9 3 84 20 168 37 83
17 156 35 162 40 13 13 -29 130 -73 199 -108 170 -270 277 -473 310 -86 13
-268 11 -354 -5z"/>
<path d="M8150 12331 c0 -5 12 -35 26 -67 14 -33 84 -219 155 -414 70 -195
142 -393 159 -440 100 -273 249 -692 260 -733 l13 -47 224 2 225 3 23 75 c12
41 91 264 174 495 84 231 168 461 186 510 158 435 209 574 221 598 l15 27
-208 0 -208 0 -31 -123 c-17 -67 -95 -324 -174 -572 -78 -247 -159 -503 -179
-567 -20 -65 -39 -120 -42 -122 -3 -3 -23 54 -46 127 -23 73 -109 346 -193
607 -83 261 -158 504 -166 540 -8 36 -17 75 -19 88 -5 22 -6 22 -210 22 -113
0 -205 -4 -205 -9z"/>
<path d="M5983 9958 c3 -237 8 -313 20 -349 61 -184 206 -316 386 -355 99 -21
3523 -21 3622 0 180 39 325 171 386 355 12 36 17 112 20 349 l5 302 -171 0
-171 0 0 -262 c-1 -325 -9 -355 -105 -399 -38 -18 -113 -19 -1775 -19 -1662 0
-1737 1 -1775 19 -96 44 -104 74 -105 399 l0 262 -171 0 -171 0 5 -302z"/>
</g>
</svg>
